<?xml version="1.0" encoding="UTF-8" standalone="no"?>
<!DOCTYPE svg PUBLIC "-//W3C//DTD SVG 1.1//EN" "http://www.w3.org/Graphics/SVG/1.1/DTD/svg11.dtd">
<svg xmlns="http://www.w3.org/2000/svg" version="1.1" viewBox="0.00 0.00 582.00 415.00">
<path fill="#0C1527" stroke="#FCA311" stroke-width="5.0" stroke-linejoin="round" d="M 281.50 0.76 Q 288.50 -3.10 295.50 0.77 L 467.15 95.61 Q 474.15 99.48 474.15 107.48 L 474.15 294.41 Q 474.15 302.41 467.16 306.31 L 295.48 402.31 Q 288.50 406.21 281.52 402.31 L 109.72 306.31 Q 102.74 302.41 102.74 294.41 L 102.74 107.48 Q 102.74 99.48 109.74 95.61 Z"/>

<g stroke-width="2.00" fill="none" stroke-linecap="butt">
</g>

<path fill="#FFFFFF" d="
  M 371.31 298.97
  Q 368.91 299.90 356.62 305.25
  C 347.50 309.22 339.71 314.16 331.97 318.92
  A 2.23 2.21 75.8 0 0 330.92 320.70
  Q 330.79 323.33 330.85 328.00
  Q 331.04 342.49 330.78 354.79
  Q 330.63 361.84 324.55 365.30
  Q 308.34 374.54 299.64 380.12
  Q 294.65 383.32 291.32 384.56
  C 287.27 386.07 284.21 384.05 279.81 381.42
  Q 275.88 379.07 271.46 376.30
  C 264.55 371.96 256.73 367.98 250.66 363.88
  C 247.22 361.57 246.25 359.34 246.08 354.86
  Q 245.57 341.63 246.12 324.02
  Q 246.19 321.61 245.60 319.65
  A 1.94 1.91 7.0 0 0 244.73 318.56
  C 236.61 313.85 230.17 309.46 222.89 306.32
  Q 212.27 301.73 205.85 299.28
  A 2.20 2.18 39.7 0 0 203.94 299.45
  Q 185.78 310.41 169.13 320.57
  Q 164.51 323.39 159.08 320.08
  Q 143.51 310.56 130.80 303.47
  Q 128.98 302.45 126.22 300.46
  C 121.57 297.11 122.08 293.11 122.02 287.06
  Q 122.01 285.96 122.06 260.65
  C 122.07 254.25 121.47 250.71 126.40 247.62
  Q 143.65 236.82 159.99 227.62
  A 1.25 1.24 -16.2 0 0 160.63 226.47
  Q 160.28 219.06 160.46 211.43
  C 160.69 201.45 160.08 192.66 160.81 182.79
  A 1.00 0.98 -72.5 0 0 160.35 181.88
  Q 143.62 171.45 127.07 162.02
  Q 122.03 159.15 122.09 153.01
  Q 122.17 144.48 121.95 117.50
  C 121.91 111.77 123.61 109.78 128.59 106.70
  Q 142.67 98.00 147.04 95.50
  Q 147.54 95.21 158.34 88.61
  Q 164.57 84.80 170.45 88.34
  Q 187.26 98.47 203.07 108.23
  Q 204.41 109.06 206.66 108.17
  Q 211.46 106.26 219.87 102.17
  C 228.49 97.98 235.82 92.24 244.54 87.00
  A 1.29 1.27 74.8 0 0 245.16 85.90
  Q 245.19 62.47 245.10 47.09
  C 245.08 43.08 247.87 40.58 251.34 38.47
  Q 278.66 21.84 283.23 19.23
  C 289.57 15.62 295.70 20.41 301.64 24.22
  Q 304.53 26.07 308.74 28.39
  Q 317.34 33.11 327.69 40.01
  A 3.73 3.71 -4.0 0 1 328.36 40.59
  Q 331.75 44.33 331.59 49.76
  Q 331.05 68.83 331.41 85.65
  A 1.67 1.65 -75.3 0 0 332.21 87.04
  C 333.93 88.07 335.45 88.72 337.09 89.90
  Q 351.83 100.57 369.97 108.04
  Q 371.71 108.76 373.00 108.46
  A 0.86 0.85 23.4 0 0 373.28 108.35
  Q 401.94 90.74 406.78 87.94
  C 412.73 84.51 416.97 87.60 423.35 91.51
  Q 442.47 103.25 442.88 103.48
  Q 449.22 107.05 451.79 108.90
  A 2.80 2.51 3.2 0 1 452.37 109.48
  Q 455.05 113.07 454.96 117.79
  Q 454.54 138.14 454.86 151.69
  C 454.96 156.19 453.88 159.24 450.50 161.53
  C 446.47 164.26 439.64 167.63 434.35 171.09
  Q 426.78 176.04 416.32 181.71
  A 0.89 0.88 -14.1 0 0 415.85 182.49
  L 415.85 226.24
  A 1.44 1.44 0.0 0 0 416.59 227.50
  Q 432.66 236.52 450.45 247.55
  C 454.15 249.84 454.97 253.24 454.87 257.76
  Q 454.64 268.16 454.79 278.56
  Q 454.95 289.58 454.63 292.79
  C 454.21 297.05 452.35 299.36 448.35 301.84
  C 439.48 307.34 430.02 312.73 418.05 320.05
  Q 412.42 323.49 406.93 320.10
  Q 390.19 309.77 372.41 299.06
  A 1.28 1.27 49.5 0 0 371.31 298.97
  Z
  M 284.98 113.36
  Q 286.21 117.54 284.62 121.21
  L 217.60 160.87
  L 210.96 157.34
  L 216.54 154.03
  A 0.42 0.42 0.0 0 0 216.54 153.31
  L 201.84 144.56
  A 2.96 2.94 15.5 0 1 200.40 142.03
  L 200.40 115.31
  A 2.38 2.36 -74.5 0 0 199.26 113.28
  Q 179.37 101.08 168.45 94.66
  C 166.58 93.56 164.53 92.98 162.65 93.90
  Q 156.81 96.78 144.71 104.44
  Q 137.73 108.86 129.23 113.73
  A 1.70 1.68 -15.0 0 0 128.37 115.20
  L 128.37 153.67
  A 2.66 2.66 0.0 0 0 129.68 155.96
  L 163.86 176.30
  A 0.47 0.45 -44.7 0 0 164.35 176.29
  L 188.90 161.03
  A 2.56 2.55 39.5 0 1 191.15 160.82
  C 193.36 161.66 199.82 164.68 199.81 167.50
  Q 199.70 211.54 199.95 218.88
  A 2.93 2.93 0.0 0 1 197.07 221.92
  L 196.79 221.92
  A 3.46 3.45 0.3 0 1 193.29 218.39
  L 193.51 208.78
  A 0.62 0.61 0.9 0 0 192.89 208.15
  L 168.16 208.15
  A 0.68 0.68 0.0 0 0 167.48 208.83
  L 167.48 226.15
  A 1.52 1.52 0.0 0 0 168.23 227.46
  Q 175.17 231.55 188.73 240.06
  Q 191.03 241.50 193.46 239.97
  Q 205.35 232.49 206.67 231.68
  A 0.99 0.99 0.0 0 0 207.15 230.83
  L 206.99 162.83
  Q 212.58 164.54 213.57 167.30
  L 213.53 241.58
  Q 211.70 243.73 208.24 245.12
  Q 207.68 245.35 207.25 244.91
  Q 207.10 244.75 207.12 244.28
  L 207.11 239.84
  A 0.52 0.52 0.0 0 0 206.33 239.39
  L 192.42 247.61
  A 1.81 1.80 -54.0 0 1 191.12 247.82
  Q 189.33 247.43 187.15 246.13
  Q 180.77 242.32 163.99 232.76
  A 0.38 0.36 43.8 0 0 163.60 232.76
  Q 147.02 242.65 130.14 252.86
  Q 128.33 253.95 128.34 255.76
  Q 128.52 285.82 128.42 292.93
  A 2.79 2.76 17.4 0 0 129.66 295.27
  C 134.16 298.25 139.66 300.89 143.61 303.42
  Q 148.19 306.35 161.95 314.31
  C 163.73 315.34 165.04 315.60 166.75 314.52
  Q 175.17 309.19 190.72 300.20
  Q 193.95 298.34 199.67 294.54
  A 1.51 1.51 0.0 0 0 200.33 293.29
  L 200.33 266.72
  A 3.07 3.05 -16.0 0 1 201.78 264.12
  L 217.42 254.40
  A 0.22 0.22 0.0 0 0 217.42 254.02
  L 211.93 250.67
  Q 215.29 247.98 218.05 247.11
  L 284.90 286.76
  Q 286.16 290.60 284.64 294.39
  L 278.88 290.69
  A 0.48 0.48 0.0 0 0 278.14 291.09
  L 278.14 302.23
  A 1.37 1.37 0.0 0 1 277.65 303.28
  Q 274.46 305.94 273.32 306.59
  Q 266.12 310.68 253.85 318.32
  Q 252.04 319.45 252.04 321.26
  Q 252.07 349.57 251.94 354.25
  Q 251.85 357.43 254.25 358.76
  Q 262.74 363.48 266.15 365.74
  C 273.02 370.30 278.27 373.00 286.29 377.77
  Q 288.48 379.08 291.35 377.37
  Q 320.96 359.74 323.28 358.50
  A 2.05 2.04 75.8 0 0 324.35 356.70
  L 324.35 320.52
  A 2.59 2.57 -73.7 0 0 323.17 318.35
  Q 315.34 313.33 304.82 307.21
  Q 301.04 305.02 299.18 303.00
  A 2.06 2.06 0.0 0 1 298.64 301.61
  L 298.64 291.20
  A 0.46 0.46 0.0 0 0 297.94 290.80
  L 292.06 294.28
  Q 290.52 290.76 291.75 286.41
  L 358.92 247.01
  L 365.28 250.83
  L 359.63 253.90
  A 0.41 0.40 -43.7 0 0 359.61 254.60
  Q 365.77 258.26 371.72 262.10
  C 374.83 264.12 376.52 264.77 376.40 268.53
  Q 376.04 280.47 376.43 293.02
  A 2.42 2.40 14.8 0 0 377.60 295.01
  L 410.74 314.72
  A 3.21 3.18 45.9 0 0 413.90 314.78
  C 422.65 309.98 434.05 302.66 444.89 296.92
  Q 447.16 295.73 448.10 294.16
  A 1.47 1.42 61.8 0 0 448.32 293.39
  L 448.32 255.99
  A 4.13 4.10 15.5 0 0 446.31 252.46
  L 413.07 232.68
  A 0.72 0.71 43.1 0 0 412.31 232.70
  C 406.61 236.56 401.01 239.43 394.99 243.23
  Q 389.44 246.73 387.14 247.62
  C 384.19 248.75 378.73 244.86 377.20 243.20
  A 2.45 2.44 -75.4 0 1 376.71 242.36
  Q 376.47 241.60 376.46 239.00
  Q 376.29 210.27 376.42 197.50
  C 376.45 194.00 372.91 192.91 370.13 192.44
  A 0.43 0.42 -84.9 0 0 369.63 192.86
  L 369.58 245.32
  L 363.17 241.76
  L 363.12 166.54
  Q 365.22 164.20 369.71 162.63
  L 369.74 169.35
  A 0.35 0.35 0.0 0 0 370.27 169.65
  C 376.59 165.87 380.63 163.19 386.17 160.96
  A 1.91 1.84 -46.1 0 1 387.43 160.91
  Q 389.07 161.43 390.32 162.25
  Q 397.50 167.02 412.50 176.28
  A 0.43 0.42 -44.0 0 0 412.95 176.28
  L 446.72 156.33
  A 3.23 3.22 -15.5 0 0 448.30 153.56
  L 448.30 115.14
  A 1.93 1.92 15.5 0 0 447.36 113.49
  L 413.61 93.41
  A 2.71 2.67 48.1 0 0 411.15 93.26
  Q 407.35 94.93 402.92 97.70
  Q 393.95 103.30 377.05 113.48
  A 1.99 1.98 75.0 0 0 376.08 115.17
  Q 375.90 127.86 376.03 140.60
  C 376.06 143.07 375.54 144.05 373.54 145.30
  Q 366.61 149.61 360.28 153.26
  A 0.40 0.40 0.0 0 0 360.26 153.94
  L 365.40 157.37
  L 358.87 160.60
  L 291.82 120.89
  Q 291.13 117.20 291.65 113.60
  L 297.55 117.33
  A 0.55 0.54 -73.8 0 0 298.38 116.87
  Q 298.43 111.25 298.30 105.12
  Q 298.24 102.18 301.03 100.53
  Q 313.44 93.16 324.04 86.70
  A 1.52 1.50 74.4 0 0 324.76 85.41
  L 324.64 46.60
  A 1.31 1.27 33.9 0 0 324.53 46.08
  Q 323.94 44.81 321.70 43.55
  Q 312.63 38.42 292.28 26.01
  C 290.17 24.72 288.27 23.98 285.95 25.14
  Q 282.61 26.80 276.28 30.79
  Q 267.43 36.36 255.75 43.00
  Q 253.03 44.55 252.16 45.70
  A 1.77 1.74 -27.1 0 0 251.81 46.75
  L 251.81 85.50
  A 1.51 1.49 15.8 0 0 252.54 86.78
  Q 267.60 95.85 276.07 100.91
  Q 278.01 102.08 278.08 103.78
  Q 278.35 110.54 278.14 116.98
  A 0.43 0.43 0.0 0 0 278.80 117.35
  L 284.98 113.36
  Z
  M 231.70 103.59
  L 242.36 121.63
  A 0.35 0.23 34.1 0 1 242.40 121.73
  Q 243.99 128.68 239.42 131.39
  Q 233.39 134.98 222.58 141.95
  A 4.52 4.51 64.4 0 0 220.75 147.15
  L 220.86 147.51
  A 2.80 2.80 0.0 0 0 224.96 149.10
  L 271.09 121.84
  A 1.93 1.92 -15.3 0 0 272.04 120.18
  L 272.04 106.25
  A 0.98 0.97 -75.0 0 0 271.56 105.41
  L 249.40 92.22
  A 1.05 1.04 43.6 0 0 248.30 92.24
  L 232.00 102.37
  A 0.90 0.89 58.9 0 0 231.70 103.59
  Z
  M 305.21 118.72
  Q 306.64 118.24 308.76 117.25
  C 318.06 112.90 325.57 116.66 333.41 121.93
  A 0.74 0.74 0.0 0 0 334.46 121.68
  L 344.72 103.91
  A 1.61 1.61 0.0 0 0 344.15 101.72
  L 328.60 92.47
  A 1.28 1.27 45.2 0 0 327.30 92.46
  L 305.10 105.58
  A 1.28 1.28 0.0 0 0 304.47 106.68
  L 304.47 118.19
  A 0.56 0.56 0.0 0 0 305.21 118.72
  Z
  M 225.39 106.35
  Q 216.12 111.47 207.26 114.74
  A 0.76 0.76 0.0 0 0 206.75 115.46
  L 206.75 139.26
  A 1.99 1.97 15.6 0 0 207.72 140.96
  L 213.28 144.27
  A 0.54 0.53 -67.0 0 0 214.07 143.94
  Q 215.53 138.53 220.59 135.58
  Q 228.72 130.86 235.58 126.28
  A 2.10 2.09 -32.2 0 0 236.22 123.48
  L 226.23 106.57
  A 0.62 0.62 0.0 0 0 225.39 106.35
  Z
  M 367.04 141.93
  L 369.46 140.42
  A 1.26 1.25 -16.0 0 0 370.06 139.35
  L 370.06 115.60
  A 1.05 1.04 12.4 0 0 369.45 114.65
  L 351.60 106.45
  A 0.63 0.62 28.2 0 0 350.80 106.69
  L 340.36 124.24
  A 1.17 1.16 -58.9 0 0 340.75 125.83
  L 362.95 139.32
  A 1.88 0.98 62.5 0 1 363.15 139.46
  L 366.26 141.89
  A 0.69 0.68 47.5 0 0 367.04 141.93
  Z
  M 359.70 146.28
  A 0.99 0.99 0.0 0 0 359.72 144.59
  Q 348.93 137.88 341.58 133.86
  C 335.22 130.38 329.39 125.80 323.44 123.28
  Q 316.66 120.41 310.06 123.32
  A 0.53 0.53 0.0 0 0 310.01 124.26
  L 351.88 149.17
  A 2.87 2.86 45.1 0 0 354.80 149.18
  L 359.70 146.28
  Z
  M 370.22 185.98
  C 376.18 186.73 382.25 189.15 382.79 195.56
  Q 382.97 197.69 382.86 200.85
  A 0.76 0.76 0.0 0 0 383.62 201.64
  L 409.15 201.64
  A 0.27 0.26 0.0 0 0 409.42 201.38
  L 409.42 182.73
  A 1.63 1.61 15.2 0 0 408.61 181.33
  Q 400.75 176.69 391.09 170.11
  Q 389.32 168.91 387.77 168.00
  Q 386.47 167.23 384.04 168.75
  Q 383.78 168.91 370.13 176.92
  A 1.14 1.12 -15.5 0 0 369.57 177.89
  L 369.57 185.24
  A 0.75 0.74 -86.5 0 0 370.22 185.98
  Z
  M 193.47 201.26
  L 193.61 170.30
  A 1.51 1.49 -55.9 0 0 193.51 169.76
  Q 192.46 167.04 190.06 167.93
  C 186.59 169.21 182.08 172.98 178.85 174.95
  Q 177.52 175.77 168.05 181.35
  A 1.24 1.24 0.0 0 0 167.44 182.42
  L 167.44 200.98
  A 0.68 0.68 0.0 0 0 168.12 201.66
  L 193.07 201.66
  A 0.40 0.40 0.0 0 0 193.47 201.26
  Z
  M 408.73 207.95
  Q 396.23 208.74 383.65 208.08
  A 0.67 0.67 0.0 0 0 382.95 208.75
  L 382.95 239.07
  A 1.45 1.39 27.8 0 0 383.23 239.91
  C 384.29 241.35 385.66 241.24 387.35 240.29
  Q 391.26 238.11 396.43 234.69
  C 400.15 232.23 404.36 229.96 408.31 227.96
  A 2.08 2.08 0.0 0 0 409.44 226.11
  L 409.44 208.61
  A 0.66 0.66 0.0 0 0 408.73 207.95
  Z
  M 265.33 283.85
  A 0.62 0.62 0.0 0 0 265.41 282.75
  L 224.36 258.33
  A 1.20 1.18 -45.5 0 0 223.12 258.35
  L 217.95 261.56
  A 0.64 0.64 0.0 0 0 217.95 262.64
  Q 234.79 273.12 252.14 283.10
  Q 258.44 286.72 265.33 283.85
  Z
  M 344.33 304.16
  A 0.72 0.71 -30.2 0 0 344.59 303.19
  Q 337.99 291.86 337.08 290.20
  C 334.23 284.99 331.47 279.68 337.13 276.12
  Q 349.89 268.10 355.31 264.81
  Q 357.11 263.71 358.06 262.64
  A 1.10 1.10 0.0 0 0 357.80 260.96
  L 353.61 258.46
  A 1.29 1.27 -44.6 0 0 352.30 258.46
  L 305.28 286.24
  A 0.99 0.99 0.0 0 0 304.80 287.09
  L 304.80 299.00
  A 1.53 1.51 -74.8 0 0 305.54 300.31
  L 327.39 313.31
  A 1.41 1.41 0.0 0 0 328.85 313.31
  L 344.33 304.16
  Z
  M 364.11 265.40
  Q 360.66 269.13 357.81 270.83
  Q 349.44 275.80 340.77 281.42
  A 1.33 1.32 -32.0 0 0 340.35 283.21
  L 350.67 300.68
  A 0.44 0.44 0.0 0 0 351.23 300.86
  L 369.43 292.89
  A 1.01 1.00 -11.5 0 0 370.03 291.99
  Q 370.18 282.36 370.09 272.28
  C 370.07 270.16 370.36 268.80 368.76 267.68
  Q 366.04 265.77 365.15 265.24
  A 0.84 0.83 -53.4 0 0 364.11 265.40
  Z
  M 236.55 281.20
  Q 223.69 273.74 215.11 268.16
  Q 213.22 266.93 212.23 265.79
  A 1.03 1.03 0.0 0 0 210.85 265.62
  L 207.39 268.07
  A 1.72 1.70 72.5 0 0 206.67 269.47
  L 206.67 292.08
  A 1.04 1.03 -79.1 0 0 207.31 293.04
  L 225.32 300.59
  A 0.74 0.74 0.0 0 0 226.24 300.29
  L 236.87 282.43
  A 0.90 0.89 -59.7 0 0 236.55 281.20
  Z
  M 271.65 287.50
  Q 262.32 293.85 252.46 290.53
  C 249.72 289.61 245.71 286.82 243.45 285.57
  A 0.93 0.92 30.0 0 0 242.20 285.90
  L 232.06 302.94
  A 0.69 0.69 0.0 0 0 232.30 303.88
  L 247.52 312.94
  A 2.62 2.60 -44.8 0 0 250.17 312.94
  L 271.59 300.28
  A 1.31 1.30 -15.4 0 0 272.23 299.16
  L 272.23 287.81
  A 0.37 0.37 0.0 0 0 271.65 287.50
  Z"
/>

<path fill="#586D9C" d="
  M 291.65 113.60
  Q 291.13 117.20 291.82 120.89
  Q 291.28 128.78 295.28 135.72
  Q 297.11 138.89 298.89 142.30
  A 0.58 0.58 0.0 0 1 298.57 143.11
  C 294.84 144.45 291.95 146.85 288.76 149.15
  A 0.83 0.83 0.0 0 1 287.78 149.15
  C 284.73 146.93 282.08 144.80 278.57 143.24
  A 1.26 1.26 0.0 0 1 277.99 141.46
  Q 281.20 135.85 283.58 131.30
  Q 285.41 127.80 284.62 121.21
  Q 286.21 117.54 284.98 113.36
  L 284.80 77.15
  A 1.42 1.42 0.0 0 0 284.01 75.88
  C 280.70 74.22 276.95 72.49 276.77 68.02
  Q 276.73 67.04 276.70 62.00
  Q 276.67 58.89 279.57 57.02
  C 282.85 54.91 286.88 52.06 289.99 53.26
  C 292.81 54.35 297.92 56.80 299.48 59.83
  A 2.33 2.28 -60.3 0 1 299.73 60.79
  Q 299.97 67.10 299.58 69.28
  C 298.87 73.27 294.84 74.23 292.16 76.26
  A 1.13 1.12 -19.1 0 0 291.72 77.15
  L 291.65 113.60
  Z"
/>
<path fill="#586D9C" d="
  M 210.96 157.34
  L 217.60 160.87
  Q 223.72 165.45 229.54 166.19
  Q 236.01 167.01 240.16 166.95
  A 2.20 2.20 0.0 0 1 242.31 168.52
  Q 243.27 171.69 242.68 173.31
  A 2.76 2.71 -17.9 0 1 242.32 174.00
  C 240.81 176.16 237.86 178.48 236.48 181.08
  Q 235.33 183.23 234.78 185.19
  A 0.70 0.70 0.0 0 1 233.78 185.62
  C 228.82 182.97 225.43 176.67 221.95 172.30
  Q 219.58 169.32 213.57 167.30
  Q 212.58 164.54 206.99 162.83
  L 174.19 142.54
  A 2.83 2.81 -43.8 0 0 171.31 142.49
  C 169.61 143.47 167.38 145.14 165.25 145.56
  C 162.67 146.06 159.51 143.98 156.80 142.19
  C 152.78 139.53 152.62 137.08 152.93 132.25
  Q 153.16 128.82 154.03 127.10
  A 3.26 3.26 0.0 0 1 154.83 126.10
  Q 159.48 122.29 162.93 121.18
  C 166.16 120.13 171.86 124.29 174.08 126.15
  C 176.09 127.84 175.93 131.66 175.91 134.97
  A 2.18 2.18 0.0 0 0 176.97 136.86
  L 210.96 157.34
  Z"
/>
<path fill="#586D9C" d="
  M 369.71 162.63
  Q 365.22 164.20 363.12 166.54
  L 357.09 170.50
  A 14.56 14.50 -88.3 0 0 353.42 173.97
  C 350.29 178.20 347.73 182.75 342.98 185.66
  A 0.83 0.83 0.0 0 1 341.75 185.18
  Q 340.05 179.27 335.06 174.98
  Q 333.57 173.70 333.85 171.84
  Q 334.17 169.67 334.54 168.14
  A 1.88 1.87 5.4 0 1 336.27 166.71
  L 347.51 166.19
  A 3.25 2.75 -49.7 0 0 348.05 166.10
  Q 353.88 164.53 358.87 160.60
  L 365.40 157.37
  L 400.06 136.49
  A 1.77 1.75 74.7 0 0 400.91 134.98
  L 400.91 129.92
  A 4.70 4.70 0.0 0 1 402.66 126.26
  Q 405.48 123.99 409.56 121.83
  C 413.83 119.56 419.01 123.60 422.47 126.52
  A 3.71 3.69 20.1 0 1 423.79 129.35
  L 423.79 137.45
  A 2.60 2.59 60.4 0 1 423.43 138.77
  Q 422.36 140.60 420.45 141.95
  C 415.04 145.79 411.43 147.19 405.72 142.88
  A 2.75 2.75 0.0 0 0 402.63 142.72
  L 369.71 162.63
  Z"
/>
<path fill="#FCA311" d="
  M 233.60 214.25
  A 0.44 0.43 21.0 0 1 234.29 213.95
  L 240.12 218.10
  A 1.40 1.36 -83.1 0 1 240.63 218.77
  C 242.26 223.42 244.36 227.64 250.10 226.27
  C 254.98 225.11 259.56 222.43 265.11 224.94
  C 268.24 226.36 274.10 230.96 274.77 234.92
  C 275.09 236.85 273.09 237.96 273.43 239.71
  C 274.86 247.00 284.55 241.69 279.05 236.26
  A 5.22 4.97 9.9 0 1 278.10 234.98
  Q 274.94 229.02 274.37 228.28
  C 271.05 224.07 263.00 219.36 257.06 221.08
  C 253.81 222.02 245.94 226.58 243.80 220.64
  A 1.67 1.66 -20.9 0 1 244.75 218.53
  L 248.51 217.03
  A 1.14 1.14 0.0 0 0 248.06 214.83
  C 245.47 214.88 242.60 215.16 240.37 214.21
  Q 236.57 212.61 234.51 208.59
  A 11.03 11.00 -51.9 0 1 233.60 200.92
  L 234.26 198.21
  A 1.93 1.93 0.0 0 1 237.88 197.83
  Q 241.10 204.53 249.69 206.69
  A 8.60 8.51 68.9 0 1 252.40 207.91
  C 260.83 213.60 267.22 218.23 277.86 213.66
  Q 280.09 212.69 281.81 210.88
  A 1.69 1.46 41.1 0 0 281.49 208.59
  Q 280.55 207.83 279.28 208.52
  C 277.27 209.61 275.33 211.11 272.66 211.57
  Q 264.01 213.08 257.77 207.78
  A 0.82 0.81 -57.8 0 1 257.56 206.84
  Q 258.44 204.89 257.58 204.21
  Q 251.06 199.08 251.23 191.01
  Q 251.25 190.27 252.49 187.73
  A 1.62 1.60 49.8 0 0 252.58 186.57
  C 250.93 181.17 243.27 184.70 247.15 189.94
  Q 248.17 191.31 248.35 193.16
  C 248.67 196.41 250.06 198.40 251.49 201.00
  Q 252.21 202.31 252.15 203.61
  A 0.47 0.47 0.0 0 1 251.57 204.04
  C 246.96 202.97 242.09 200.11 239.71 195.72
  C 235.05 187.15 239.73 179.56 246.65 174.35
  C 250.76 171.26 256.03 171.07 260.24 174.07
  A 0.34 0.34 0.0 0 0 260.69 173.57
  Q 255.43 167.41 247.56 170.06
  A 0.73 0.73 0.0 0 1 246.59 169.32
  C 247.04 162.81 252.38 157.60 258.16 155.46
  A 0.82 0.82 0.0 0 1 259.27 156.21
  C 259.41 162.29 261.35 164.14 266.56 168.14
  A 4.07 3.64 3.2 0 1 267.26 168.84
  C 270.67 173.28 269.65 178.56 265.46 182.25
  C 260.20 186.89 255.89 192.06 260.59 199.12
  C 264.20 204.54 271.83 205.04 275.83 199.80
  Q 277.48 197.63 278.26 193.85
  A 3.39 3.32 -22.2 0 1 278.81 192.58
  C 280.03 190.89 281.73 188.83 279.80 186.73
  Q 277.55 184.27 274.90 186.40
  Q 274.42 186.79 273.68 188.98
  A 1.60 1.58 -48.2 0 0 273.74 190.17
  C 276.39 195.92 273.44 200.96 267.33 200.67
  C 261.62 200.39 260.62 194.18 262.17 189.51
  C 262.98 187.09 266.73 184.92 268.27 183.06
  Q 274.20 175.88 269.39 167.92
  C 267.42 164.66 262.83 164.42 262.81 157.96
  Q 262.79 153.08 266.56 149.68
  C 272.32 144.50 279.71 145.50 284.86 151.22
  Q 286.53 153.08 286.53 155.51
  Q 286.54 162.73 286.32 168.38
  A 0.87 0.87 0.0 0 1 285.17 169.16
  Q 280.84 167.69 279.18 163.07
  C 278.49 161.13 278.43 158.45 277.00 156.70
  Q 275.12 154.38 272.83 154.41
  A 0.97 0.97 0.0 0 0 272.28 156.17
  L 273.70 157.17
  A 2.91 2.87 -84.1 0 1 274.68 158.39
  Q 275.35 159.97 276.59 163.90
  C 278.03 168.46 281.55 170.95 285.56 172.93
  A 1.76 1.76 0.0 0 1 286.55 174.51
  Q 286.61 216.92 286.74 242.25
  C 286.76 244.60 287.22 250.81 285.24 253.80
  Q 279.46 262.56 268.22 260.49
  C 260.30 259.04 257.08 252.19 254.90 245.35
  A 0.45 0.45 0.0 0 0 254.03 245.41
  Q 253.66 247.57 254.32 250.26
  A 1.10 1.10 0.0 0 1 253.05 251.61
  C 245.03 250.12 241.40 244.03 240.40 236.55
  A 0.63 0.63 0.0 0 1 241.29 235.89
  Q 247.24 238.62 253.68 237.35
  A 2.53 2.49 51.4 0 1 255.19 237.53
  Q 258.34 238.96 259.13 238.90
  C 263.94 238.54 265.37 232.46 260.06 231.49
  C 257.83 231.08 255.79 233.09 253.77 233.95
  A 6.06 5.88 -60.8 0 1 252.47 234.34
  C 239.35 236.61 232.16 226.18 233.60 214.25
  Z
  M 264.50 243.17
  L 264.21 243.14
  A 0.43 0.43 0.0 0 0 263.85 243.82
  Q 266.84 247.92 268.94 252.79
  C 270.28 255.90 274.88 255.73 276.16 252.77
  A 1.80 1.80 0.0 0 0 275.07 250.35
  L 270.82 248.93
  A 2.08 1.97 -11.8 0 1 269.97 248.41
  L 265.31 243.57
  A 1.31 1.30 -19.0 0 0 264.50 243.17
  Z"
/>
<path fill="#FCA311" d="
  M 315.56 173.97
  A 0.34 0.34 0.0 0 0 316.06 174.41
  C 320.01 171.15 324.50 170.94 328.89 173.68
  C 334.31 177.07 339.59 183.85 338.37 190.45
  C 337.00 197.84 332.30 202.45 324.87 203.65
  A 0.57 0.57 0.0 0 1 324.25 202.89
  L 330.13 187.70
  A 1.93 1.93 0.0 0 0 330.15 186.33
  Q 328.72 182.40 325.13 184.19
  A 2.76 2.74 -23.8 0 0 323.79 187.63
  L 324.91 190.57
  A 1.47 1.22 39.7 0 1 325.00 191.05
  C 325.03 196.82 322.43 201.30 318.29 204.99
  A 0.78 0.78 0.0 0 0 318.17 206.03
  L 318.63 206.67
  A 0.86 0.86 0.0 0 1 318.46 207.84
  Q 310.80 213.90 301.50 210.89
  A 2.19 1.44 -11.6 0 1 301.20 210.77
  L 296.49 208.31
  A 1.23 1.23 0.0 0 0 294.70 209.28
  L 294.64 209.83
  A 2.14 2.14 0.0 0 0 295.61 211.84
  C 303.81 217.12 311.86 216.46 319.47 211.03
  Q 323.52 208.13 323.87 207.94
  A 11.31 3.98 -29.7 0 1 325.28 207.20
  C 326.92 206.38 329.89 205.85 331.74 204.63
  Q 336.24 201.68 338.63 197.92
  A 1.90 1.89 51.2 0 1 342.01 198.29
  L 342.90 200.71
  A 8.00 7.99 47.3 0 1 342.66 206.81
  Q 338.30 216.26 330.06 214.62
  Q 328.78 214.37 327.96 214.97
  A 1.39 1.29 38.2 0 0 328.32 217.24
  Q 328.93 217.52 331.28 218.35
  A 2.17 2.16 -63.3 0 1 332.35 221.60
  Q 330.31 224.62 326.24 223.26
  Q 322.30 221.94 318.81 221.01
  C 313.43 219.56 305.90 223.97 302.36 227.73
  A 7.40 7.21 82.4 0 0 301.40 229.02
  Q 300.54 230.50 298.36 234.87
  C 297.58 236.45 295.50 238.24 295.87 240.09
  C 296.85 245.14 303.41 243.53 303.19 238.69
  A 1.27 1.20 -66.0 0 0 302.96 238.03
  L 301.89 236.51
  A 1.30 1.30 0.0 0 1 301.71 235.34
  C 303.62 229.58 309.46 224.37 315.77 223.84
  C 321.64 223.34 329.80 230.04 333.78 223.35
  Q 335.01 221.29 335.46 218.96
  A 1.79 1.77 -11.9 0 1 336.19 217.85
  L 341.80 213.87
  A 0.52 0.51 -21.5 0 1 342.61 214.22
  Q 343.84 223.89 338.26 230.10
  C 333.86 234.99 326.16 235.80 320.72 232.87
  Q 317.60 231.19 316.48 231.47
  Q 314.15 232.04 313.00 234.78
  A 1.24 1.24 0.0 0 0 313.04 235.82
  Q 314.44 238.59 317.60 239.04
  A 1.40 1.38 36.8 0 0 318.33 238.94
  L 321.57 237.52
  A 1.48 1.43 37.7 0 1 322.45 237.42
  Q 329.47 238.80 335.37 235.93
  A 0.42 0.42 0.0 0 1 335.97 236.34
  C 335.32 242.60 332.86 248.04 326.63 250.84
  Q 324.17 251.94 322.80 251.67
  A 0.69 0.68 -81.4 0 1 322.25 250.92
  L 322.78 245.61
  A 0.49 0.48 7.4 0 0 322.37 245.08
  L 322.35 245.08
  A 0.77 0.76 8.8 0 0 321.62 245.61
  C 318.35 255.79 312.55 262.73 300.79 260.68
  C 296.67 259.96 290.73 256.07 290.43 251.29
  C 290.14 246.63 289.81 240.06 290.10 234.83
  C 290.28 231.56 289.87 228.43 289.97 224.39
  Q 290.33 210.33 290.05 193.33
  C 289.95 187.54 290.35 181.16 290.16 175.05
  A 2.37 2.36 -15.4 0 1 291.37 172.92
  Q 294.11 171.41 296.07 169.85
  C 298.60 167.83 300.22 163.24 301.19 159.95
  C 301.76 158.00 302.67 157.40 304.48 155.72
  A 0.85 0.85 0.0 0 0 303.81 154.25
  C 299.95 154.67 298.34 158.05 297.43 161.76
  C 296.53 165.42 295.32 167.65 291.77 169.02
  A 1.05 1.05 0.0 0 1 290.34 168.03
  Q 290.41 162.56 290.08 157.68
  Q 289.74 152.66 293.26 149.77
  Q 301.56 142.95 310.30 149.51
  Q 312.42 151.11 313.23 154.27
  C 314.40 158.82 313.35 161.98 310.13 164.88
  C 308.60 166.26 307.43 167.17 306.58 168.65
  Q 302.67 175.43 307.30 182.18
  C 308.59 184.05 311.99 185.90 313.34 187.95
  C 316.42 192.61 314.66 202.47 306.74 200.72
  Q 301.64 199.59 301.33 193.87
  A 2.77 2.72 58.8 0 1 301.68 192.38
  Q 303.01 190.05 302.94 189.54
  C 302.17 183.56 295.06 184.69 295.86 189.73
  A 1.76 1.76 0.0 0 0 296.21 190.54
  L 297.91 192.74
  A 2.54 2.48 19.1 0 1 298.34 193.60
  C 299.03 196.13 299.73 199.37 301.54 200.87
  C 307.65 205.94 315.73 203.21 317.23 195.20
  C 318.41 188.96 314.48 185.67 310.36 181.86
  Q 306.50 178.29 307.33 172.75
  C 308.19 167.04 314.49 166.60 316.34 161.58
  Q 317.18 159.31 317.44 155.99
  A 0.74 0.74 0.0 0 1 318.45 155.36
  C 324.65 157.78 329.16 161.98 329.96 168.83
  A 0.77 0.77 0.0 0 1 329.00 169.66
  C 323.96 168.33 318.33 169.55 315.56 173.97
  Z
  M 312.23 243.13
  A 1.32 1.31 20.1 0 0 311.41 243.51
  L 306.63 248.30
  A 2.10 1.99 12.8 0 1 305.77 248.81
  L 301.46 250.16
  A 1.82 1.81 -19.8 0 0 300.32 252.58
  C 301.55 255.58 306.18 255.83 307.59 252.73
  Q 309.79 247.86 312.87 243.79
  A 0.43 0.43 0.0 0 0 312.52 243.10
  L 312.23 243.13
  Z"
/>
<path fill="#586D9C" d="
  M 363.17 241.76
  L 369.58 245.32
  L 402.66 265.86
  A 2.59 2.59 0.0 0 0 405.29 265.91
  C 409.09 263.77 411.41 262.04 415.78 263.98
  C 418.84 265.33 423.35 267.56 423.69 271.30
  Q 424.07 275.50 423.39 280.18
  C 422.89 283.57 414.29 288.05 411.29 287.71
  A 2.94 2.72 58.5 0 1 410.40 287.46
  Q 405.63 285.18 402.71 283.02
  C 399.85 280.90 400.39 277.27 400.69 273.43
  A 1.50 1.49 -63.1 0 0 400.34 272.34
  Q 399.35 271.20 397.73 270.26
  Q 381.27 260.67 365.28 250.83
  L 358.92 247.01
  Q 349.22 242.11 339.11 242.77
  A 0.37 0.36 88.5 0 1 338.73 242.40
  L 338.73 236.48
  A 3.64 3.64 0.0 0 1 339.60 234.12
  Q 343.44 229.66 346.05 224.33
  A 0.83 0.83 0.0 0 1 347.47 224.22
  L 355.81 236.00
  A 2.23 2.06 88.4 0 0 356.28 236.48
  L 363.17 241.76
  Z"
/>
<path fill="#586D9C" d="
  M 218.05 247.11
  Q 215.29 247.98 211.93 250.67
  L 176.84 271.82
  A 1.34 1.34 0.0 0 0 176.19 272.97
  L 176.19 279.41
  A 4.28 4.28 0.0 0 1 174.08 283.10
  L 166.77 287.42
  A 3.77 3.76 39.8 0 1 163.55 287.71
  C 160.21 286.48 154.34 283.59 153.48 279.77
  C 153.14 278.27 152.47 271.70 153.82 269.48
  C 155.47 266.75 160.04 264.40 162.75 263.47
  C 165.44 262.55 168.77 264.27 171.10 265.88
  A 2.02 2.01 48.7 0 0 173.18 266.02
  Q 174.64 265.27 177.99 263.21
  Q 194.62 252.96 206.49 245.96
  Q 207.18 245.55 207.12 244.28
  Q 207.10 244.75 207.25 244.91
  Q 207.68 245.35 208.24 245.12
  Q 211.70 243.73 213.53 241.58
  Q 218.72 239.07 220.61 236.10
  Q 224.50 229.98 229.16 224.42
  A 0.87 0.87 0.0 0 1 230.61 224.62
  Q 232.98 229.84 237.09 234.19
  A 1.83 1.80 -68.9 0 1 237.59 235.34
  L 237.98 241.64
  A 1.09 1.08 -0.5 0 1 236.84 242.79
  Q 227.49 242.32 218.05 247.11
  Z"
/>
<path fill="#586D9C" d="
  M 291.75 286.41
  Q 290.52 290.76 292.06 294.28
  L 291.53 325.43
  A 2.80 2.80 0.0 0 0 292.85 327.86
  C 295.12 329.27 299.60 331.21 299.91 334.71
  Q 300.08 336.58 299.91 342.30
  C 299.85 344.06 299.09 345.54 297.76 346.52
  C 295.19 348.40 290.25 351.86 287.28 350.99
  Q 284.30 350.11 279.65 346.90
  C 276.05 344.42 276.91 339.59 276.96 335.23
  C 277.01 331.54 280.78 329.90 284.05 327.86
  A 2.84 2.83 73.4 0 0 285.37 325.41
  L 284.64 294.39
  Q 286.16 290.60 284.90 286.76
  C 285.65 277.75 282.47 271.57 278.10 264.68
  A 0.84 0.83 -27.9 0 1 278.48 263.47
  Q 284.15 261.06 287.90 256.33
  A 0.46 0.46 0.0 0 1 288.62 256.33
  Q 292.37 261.02 298.05 263.41
  A 0.86 0.86 0.0 0 1 298.44 264.66
  C 294.21 271.37 290.95 277.74 291.75 286.41
  Z"
/>

</svg>
